<?xml version="1.0" standalone="no"?><!DOCTYPE svg PUBLIC "-//W3C//DTD SVG 1.1//EN" "http://www.w3.org/Graphics/SVG/1.1/DTD/svg11.dtd"><svg t="1679322182212" class="icon" viewBox="0 0 1024 1024" version="1.1" xmlns="http://www.w3.org/2000/svg" p-id="10278" xmlns:xlink="http://www.w3.org/1999/xlink" width="25" height="25"><path d="M760.654769 369.447385l17.92-80.344616a87.217231 87.217231 0 0 0-11.815384-66.56 87.670154 87.670154 0 0 0-55.355077-38.793846l-145.132308-32.295385a88.792615 88.792615 0 0 0-90.190769 33.673847l-145.900308 23.236923a88.615385 88.615385 0 0 0-73.472 101.218461l9.472 59.076923a88.615385 88.615385 0 0 0-65.181538 85.267693v288.295384a88.398769 88.398769 0 0 0 88.398769 88.418462h445.262769a88.615385 88.615385 0 0 0 88.398769-88.418462v-288.295384a88.812308 88.812308 0 0 0-62.404923-84.48zM279.788308 742.262154v-288.295385a9.649231 9.649231 0 0 1 9.629538-9.649231h445.262769a9.472 9.472 0 0 1 8.27077 4.726154 10.220308 10.220308 0 0 1 1.358769 4.923077v288.295385a9.668923 9.668923 0 0 1-9.629539 9.649231H289.417846a9.649231 9.649231 0 0 1-9.629538-9.649231z m319.606154-502.744616l94.89723 21.07077a9.432615 9.432615 0 0 1 6.104616 4.332307 9.058462 9.058462 0 0 1 1.181538 7.286154l-20.676923 93.341539h-172.110769l17.92-80.541539 11.047384-49.427692a9.846154 9.846154 0 0 1 11.401847-7.286154z m-256.787693 46.67077l106.909539-16.935385-21.464616 96.295385h-82.510769l-11.027692-68.332308a9.728 9.728 0 0 1 8.093538-11.067077z" fill="#2c2c2c" p-id="10279"></path><path d="M425.058462 667.588923h173.902769a39.502769 39.502769 0 0 0 39.384615-39.384615 39.384615 39.384615 0 0 0-39.384615-39.384616h-173.902769a39.384615 39.384615 0 0 0-39.384616 39.384616 39.502769 39.502769 0 0 0 39.384616 39.384615z" fill="#2c2c2c" p-id="10280"></path></svg>